<svg xmlns="http://www.w3.org/2000/svg" width="16" height="15" viewBox="0 0 16 15" fill="none">
  <g clip-path="url(#clip0_1218_79)">
    <path d="M0.884551 7.75015L3.25788 9.37516L2.35655 11.992C2.21089 12.3979 2.20905 12.837 2.35129 13.244C2.49353 13.6509 2.77225 14.0038 3.14588 14.2502C3.51312 14.5044 3.95815 14.6406 4.41465 14.6385C4.87116 14.6363 5.31471 14.4959 5.67922 14.2383L7.99989 12.637L10.3212 14.2364C10.6878 14.4892 11.1304 14.6265 11.5855 14.6286C12.0405 14.6306 12.4846 14.4974 12.8537 14.248C13.2229 13.9986 13.4982 13.6458 13.6401 13.2405C13.7819 12.8351 13.783 12.398 13.6432 11.992L12.7419 9.37516L15.1152 7.75015C15.4813 7.49922 15.7535 7.14625 15.8928 6.74165C16.0321 6.33705 16.0315 5.90152 15.891 5.49727C15.7505 5.09302 15.4774 4.74073 15.1106 4.49072C14.7438 4.24071 14.3021 4.10576 13.8486 4.10515H10.9332L10.0486 1.52015C9.90943 1.11325 9.63606 0.758288 9.26786 0.506445C8.89967 0.254602 8.45566 0.118896 7.99989 0.118896C7.54411 0.118896 7.10011 0.254602 6.73191 0.506445C6.36371 0.758288 6.09034 1.11325 5.95122 1.52015L5.06655 4.10515H2.15388C1.70038 4.10576 1.25868 4.24071 0.891871 4.49072C0.525063 4.74073 0.251912 5.09302 0.111432 5.49727C-0.0290475 5.90152 -0.0296693 6.33705 0.109656 6.74165C0.24898 7.14625 0.521125 7.49922 0.887218 7.75015H0.884551Z" fill="#6A4028"/>
  </g>
  <defs>
    <clipPath id="clip0_1218_79">
      <rect width="16" height="15" fill="white"/>
    </clipPath>
  </defs>
</svg>