<svg version="1.1" id="Layer_1" xmlns="http://www.w3.org/2000/svg" xmlns:xlink="http://www.w3.org/1999/xlink" x="0px" y="0px" width="30px" height="30px" viewBox="0 0 512 512" enable-background="new 0 0 512 512" xml:space="preserve">
<path fill="#FFFFFF" opacity="1.000000" stroke="none" 
	d="
M187.000000,513.000000 
	C125.027115,513.000000 63.054234,513.000000 1.040676,513.000000 
	C1.040676,342.435120 1.040676,171.870193 1.040676,1.000000 
	C99.021805,1.000000 197.043915,1.000000 295.405457,1.378487 
	C292.618164,2.503865 289.516479,3.383994 286.360748,3.976187 
	C264.657135,8.048985 245.285522,17.212736 228.851746,31.834970 
	C213.667358,45.345528 203.422684,62.380642 197.015915,81.651268 
	C190.406403,101.531639 187.856430,122.110329 187.042694,142.936356 
	C186.772125,149.860962 187.000000,156.805038 187.000000,164.119720 
	C158.745209,164.119720 131.013107,164.119720 103.243172,164.119720 
	C103.243172,196.570206 103.243172,228.632034 103.243172,260.500000 
	C131.274307,260.500000 159.062073,260.500000 187.000000,260.500000 
	C187.000000,344.766602 187.000000,428.883301 187.000000,513.000000 
z"/>
<path fill="#FFFFFF" opacity="1.000000" stroke="none" 
	d="
M411.000000,1.000000 
	C444.981689,1.000000 478.963379,1.000000 512.972534,1.000000 
	C512.972534,171.556396 512.972534,342.112793 512.972534,513.000000 
	C447.312805,513.000000 381.625061,513.000000 315.468658,512.531372 
	C315.000000,428.478668 315.000000,344.894653 315.000000,260.918945 
	C343.214233,260.918945 370.949432,260.918945 398.768677,260.918945 
	C398.768677,228.460617 398.768677,196.395386 398.768677,163.938232 
	C370.805237,163.938232 343.070068,163.938232 315.001099,163.938232 
	C315.001099,151.756760 314.404144,139.923889 315.205811,128.186554 
	C315.763092,120.027145 318.707733,112.351425 324.482086,105.861481 
	C333.138397,96.132431 344.605835,93.594727 356.535583,93.154633 
	C373.174774,92.540817 389.853516,93.005714 406.515350,92.989883 
	C407.949646,92.988525 409.383820,92.844505 411.000000,92.756889 
	C411.000000,61.941715 411.000000,31.470858 411.000000,1.000000 
z"/>
<path fill="#000000" opacity="1.000000" stroke="none" 
	d="
M410.531342,1.000000 
	C411.000000,31.470858 411.000000,61.941715 411.000000,92.756889 
	C409.383820,92.844505 407.949646,92.988525 406.515350,92.989883 
	C389.853516,93.005714 373.174774,92.540817 356.535583,93.154633 
	C344.605835,93.594727 333.138397,96.132431 324.482086,105.861481 
	C318.707733,112.351425 315.763092,120.027145 315.205811,128.186554 
	C314.404144,139.923889 315.001099,151.756760 315.001099,163.938232 
	C343.070068,163.938232 370.805237,163.938232 398.768677,163.938232 
	C398.768677,196.395386 398.768677,228.460617 398.768677,260.918945 
	C370.949432,260.918945 343.214233,260.918945 315.000000,260.918945 
	C315.000000,344.894653 315.000000,428.478668 315.000000,512.531372 
	C272.645782,513.000000 230.291550,513.000000 187.468658,513.000000 
	C187.000000,428.883301 187.000000,344.766602 187.000000,260.500000 
	C159.062073,260.500000 131.274307,260.500000 103.243172,260.500000 
	C103.243172,228.632034 103.243172,196.570206 103.243172,164.119720 
	C131.013107,164.119720 158.745209,164.119720 187.000000,164.119720 
	C187.000000,156.805038 186.772125,149.860962 187.042694,142.936356 
	C187.856430,122.110329 190.406403,101.531639 197.015915,81.651268 
	C203.422684,62.380642 213.667358,45.345528 228.851746,31.834970 
	C245.285522,17.212736 264.657135,8.048985 286.360748,3.976187 
	C289.516479,3.383994 292.618164,2.503865 295.872437,1.378487 
	C334.020905,1.000000 372.041779,1.000000 410.531342,1.000000 
M299.023621,103.753922 
	C305.964935,90.929947 315.728485,81.231049 329.608551,76.062645 
	C338.343445,72.810112 347.392914,71.160713 356.679993,71.034103 
	C367.424591,70.887611 378.172699,71.000000 388.651978,71.000000 
	C388.651978,54.563602 388.651978,38.826134 388.651978,23.000000 
	C364.816895,23.000000 341.326019,23.255800 317.843811,22.914852 
	C300.666138,22.665443 284.425842,25.736418 268.609894,32.615425 
	C249.291992,41.017590 235.054596,54.715736 225.132645,72.807434 
	C213.428650,94.148560 210.372620,117.820847 209.126846,141.660431 
	C208.423523,155.119461 209.007919,168.645386 208.986862,182.141129 
	C208.984909,183.399475 208.799362,184.657516 208.670364,186.275284 
	C180.589493,186.275284 152.854782,186.275284 125.332214,186.275284 
	C125.332214,204.071594 125.332214,221.474670 125.332214,238.500000 
	C153.339645,238.500000 181.014420,238.500000 209.063187,238.500000 
	C209.063187,322.536438 209.063187,406.590332 209.063187,490.786621 
	C237.169022,490.786621 264.901337,490.786621 293.183685,490.786621 
	C293.183685,406.735962 293.183685,322.897125 293.183685,238.668854 
	C321.468048,238.668854 349.202545,238.668854 376.639496,238.668854 
	C376.639496,220.871399 376.639496,203.467453 376.639496,185.680573 
	C348.544952,185.680573 320.810242,185.680573 293.000000,185.680573 
	C293.000000,167.797577 293.016663,150.306412 292.993500,132.815277 
	C292.980469,122.963364 295.277130,113.610199 299.023621,103.753922 
z"/>
<path fill="#FFFFFF" opacity="1.000000" stroke="none" 
	d="
M298.980072,104.145401 
	C295.277130,113.610199 292.980469,122.963364 292.993500,132.815277 
	C293.016663,150.306412 293.000000,167.797577 293.000000,185.680573 
	C320.810242,185.680573 348.544952,185.680573 376.639496,185.680573 
	C376.639496,203.467453 376.639496,220.871399 376.639496,238.668854 
	C349.202545,238.668854 321.468048,238.668854 293.183685,238.668854 
	C293.183685,322.897125 293.183685,406.735962 293.183685,490.786621 
	C264.901337,490.786621 237.169022,490.786621 209.063187,490.786621 
	C209.063187,406.590332 209.063187,322.536438 209.063187,238.500000 
	C181.014420,238.500000 153.339645,238.500000 125.332214,238.500000 
	C125.332214,221.474670 125.332214,204.071594 125.332214,186.275284 
	C152.854782,186.275284 180.589493,186.275284 208.670364,186.275284 
	C208.799362,184.657516 208.984909,183.399475 208.986862,182.141129 
	C209.007919,168.645386 208.423523,155.119461 209.126846,141.660431 
	C210.372620,117.820847 213.428650,94.148560 225.132645,72.807434 
	C235.054596,54.715736 249.291992,41.017590 268.609894,32.615425 
	C284.425842,25.736418 300.666138,22.665443 317.843811,22.914852 
	C341.326019,23.255800 364.816895,23.000000 388.651978,23.000000 
	C388.651978,38.826134 388.651978,54.563602 388.651978,71.000000 
	C378.172699,71.000000 367.424591,70.887611 356.679993,71.034103 
	C347.392914,71.160713 338.343445,72.810112 329.608551,76.062645 
	C315.728485,81.231049 305.964935,90.929947 298.980072,104.145401 
z"/>
</svg>